<svg xmlns="http://www.w3.org/2000/svg" xmlns:xlink="http://www.w3.org/1999/xlink" width="150" zoomAndPan="magnify" viewBox="0 0 112.5 37.5" height="50" preserveAspectRatio="xMidYMid meet" version="1.0"><defs><g/><clipPath id="002dedf13b"><path d="M 3 7 L 29 7 L 29 33 L 3 33 Z M 3 7 " clip-rule="nonzero"/></clipPath><clipPath id="1b2d580114"><path d="M -1.289062 12.835938 L 20.867188 0.90625 L 33.851562 25.019531 L 11.691406 36.949219 Z M -1.289062 12.835938 " clip-rule="nonzero"/></clipPath><clipPath id="cfc9acb980"><path d="M -1.289062 12.835938 L 20.867188 0.90625 L 33.851562 25.019531 L 11.691406 36.949219 Z M -1.289062 12.835938 " clip-rule="nonzero"/></clipPath><clipPath id="42f5c68861"><path d="M -1.253906 12.816406 L 16.867188 3.058594 L 29.875 27.21875 L 11.753906 36.976562 Z M -1.253906 12.816406 " clip-rule="nonzero"/></clipPath><clipPath id="c6ff0a23d6"><path d="M 6 5 L 24 5 L 24 28 L 6 28 Z M 6 5 " clip-rule="nonzero"/></clipPath><clipPath id="aa43be981b"><path d="M -1.289062 12.835938 L 20.867188 0.90625 L 33.851562 25.019531 L 11.691406 36.949219 Z M -1.289062 12.835938 " clip-rule="nonzero"/></clipPath><clipPath id="c536903ab0"><path d="M -1.289062 12.835938 L 20.867188 0.90625 L 33.851562 25.019531 L 11.691406 36.949219 Z M -1.289062 12.835938 " clip-rule="nonzero"/></clipPath><clipPath id="8748e6acbe"><path d="M 2.472656 11.765625 L 21.042969 1.765625 L 30.203125 18.777344 L 11.632812 28.777344 Z M 2.472656 11.765625 " clip-rule="nonzero"/></clipPath></defs><g clip-path="url(#002dedf13b)"><g clip-path="url(#1b2d580114)"><g clip-path="url(#cfc9acb980)"><g clip-path="url(#42f5c68861)"><path fill="#8c52ff" d="M 25.34375 28.707031 C 18.601562 32.335938 10.191406 29.8125 6.5625 23.074219 C 3.855469 18.046875 4.574219 12.09375 7.90625 7.886719 C 3.378906 12.101562 2.070312 18.992188 5.140625 24.695312 C 8.792969 31.476562 17.25 34.015625 24.03125 30.363281 C 26.097656 29.25 27.769531 27.6875 28.992188 25.863281 C 27.972656 26.980469 26.75 27.949219 25.34375 28.707031 " fill-opacity="1" fill-rule="nonzero"/></g></g></g></g><g clip-path="url(#c6ff0a23d6)"><g clip-path="url(#aa43be981b)"><g clip-path="url(#c536903ab0)"><g clip-path="url(#8748e6acbe)"><path fill="#000000" d="M 10.09375 22.574219 C 7.164062 17.136719 9.199219 10.359375 14.636719 7.433594 C 17.550781 5.863281 20.847656 5.722656 23.734375 6.761719 C 20.429688 4.726562 16.160156 4.457031 12.496094 6.429688 C 7.027344 9.371094 4.980469 16.191406 7.925781 21.660156 C 9.402344 24.402344 11.851562 26.285156 14.621094 27.109375 C 12.761719 26.105469 11.167969 24.570312 10.09375 22.574219 " fill-opacity="1" fill-rule="nonzero"/></g></g></g></g><g fill="#8c52ff" fill-opacity="1"><g transform="translate(12.698653, 24.957234)"><g><path d="M 9.265625 0.21875 C 7.648438 0.21875 6.238281 -0.128906 5.03125 -0.828125 C 3.820312 -1.523438 2.894531 -2.519531 2.25 -3.8125 C 1.601562 -5.101562 1.28125 -6.617188 1.28125 -8.359375 C 1.28125 -10.097656 1.601562 -11.609375 2.25 -12.890625 C 2.894531 -14.179688 3.820312 -15.171875 5.03125 -15.859375 C 6.238281 -16.554688 7.648438 -16.90625 9.265625 -16.90625 C 10.304688 -16.90625 11.285156 -16.75 12.203125 -16.4375 C 13.117188 -16.132812 13.929688 -15.691406 14.640625 -15.109375 C 14.847656 -14.953125 14.988281 -14.785156 15.0625 -14.609375 C 15.144531 -14.441406 15.1875 -14.226562 15.1875 -13.96875 C 15.1875 -13.625 15.085938 -13.332031 14.890625 -13.09375 C 14.703125 -12.863281 14.476562 -12.75 14.21875 -12.75 C 13.894531 -12.75 13.566406 -12.859375 13.234375 -13.078125 C 12.554688 -13.578125 11.925781 -13.925781 11.34375 -14.125 C 10.757812 -14.320312 10.113281 -14.421875 9.40625 -14.421875 C 7.757812 -14.421875 6.515625 -13.90625 5.671875 -12.875 C 4.828125 -11.851562 4.40625 -10.347656 4.40625 -8.359375 C 4.40625 -6.359375 4.828125 -4.84375 5.671875 -3.8125 C 6.515625 -2.789062 7.757812 -2.28125 9.40625 -2.28125 C 10.082031 -2.28125 10.707031 -2.378906 11.28125 -2.578125 C 11.863281 -2.785156 12.515625 -3.132812 13.234375 -3.625 C 13.398438 -3.71875 13.5625 -3.796875 13.71875 -3.859375 C 13.875 -3.921875 14.039062 -3.953125 14.21875 -3.953125 C 14.476562 -3.953125 14.703125 -3.832031 14.890625 -3.59375 C 15.085938 -3.363281 15.1875 -3.070312 15.1875 -2.71875 C 15.1875 -2.488281 15.144531 -2.28125 15.0625 -2.09375 C 14.988281 -1.914062 14.847656 -1.75 14.640625 -1.59375 C 13.929688 -1 13.117188 -0.546875 12.203125 -0.234375 C 11.285156 0.0664062 10.304688 0.21875 9.265625 0.21875 Z M 9.265625 0.21875 "/></g></g></g><g fill="#8c52ff" fill-opacity="1"><g transform="translate(28.75658, 24.957234)"><g><path d="M 8.3125 -11.875 C 11.03125 -11.875 12.390625 -10.285156 12.390625 -7.109375 L 12.390625 -1.28125 C 12.390625 -0.832031 12.257812 -0.484375 12 -0.234375 C 11.738281 0.015625 11.378906 0.140625 10.921875 0.140625 C 10.460938 0.140625 10.097656 0.015625 9.828125 -0.234375 C 9.554688 -0.484375 9.421875 -0.832031 9.421875 -1.28125 L 9.421875 -7.109375 C 9.421875 -7.941406 9.25 -8.550781 8.90625 -8.9375 C 8.570312 -9.320312 8.039062 -9.515625 7.3125 -9.515625 C 6.46875 -9.515625 5.785156 -9.242188 5.265625 -8.703125 C 4.753906 -8.171875 4.5 -7.457031 4.5 -6.5625 L 4.5 -1.28125 C 4.5 -0.832031 4.363281 -0.484375 4.09375 -0.234375 C 3.820312 0.015625 3.460938 0.140625 3.015625 0.140625 C 2.554688 0.140625 2.195312 0.015625 1.9375 -0.234375 C 1.675781 -0.484375 1.546875 -0.832031 1.546875 -1.28125 L 1.546875 -15.4375 C 1.546875 -15.851562 1.679688 -16.1875 1.953125 -16.4375 C 2.234375 -16.6875 2.59375 -16.8125 3.03125 -16.8125 C 3.46875 -16.8125 3.820312 -16.691406 4.09375 -16.453125 C 4.363281 -16.222656 4.5 -15.898438 4.5 -15.484375 L 4.5 -9.96875 C 4.894531 -10.582031 5.421875 -11.050781 6.078125 -11.375 C 6.734375 -11.707031 7.476562 -11.875 8.3125 -11.875 Z M 8.3125 -11.875 "/></g></g></g><g fill="#8c52ff" fill-opacity="1"><g transform="translate(42.611867, 24.957234)"><g><path d="M 3.015625 0.140625 C 2.585938 0.140625 2.234375 0.0195312 1.953125 -0.21875 C 1.679688 -0.46875 1.546875 -0.820312 1.546875 -1.28125 L 1.546875 -10.421875 C 1.546875 -10.878906 1.679688 -11.222656 1.953125 -11.453125 C 2.234375 -11.691406 2.585938 -11.8125 3.015625 -11.8125 C 3.429688 -11.8125 3.78125 -11.691406 4.0625 -11.453125 C 4.351562 -11.222656 4.5 -10.878906 4.5 -10.421875 L 4.5 -1.28125 C 4.5 -0.820312 4.351562 -0.46875 4.0625 -0.21875 C 3.78125 0.0195312 3.429688 0.140625 3.015625 0.140625 Z M 3.015625 -13.921875 C 2.472656 -13.921875 2.039062 -14.066406 1.71875 -14.359375 C 1.40625 -14.660156 1.25 -15.046875 1.25 -15.515625 C 1.25 -15.984375 1.40625 -16.359375 1.71875 -16.640625 C 2.039062 -16.929688 2.472656 -17.078125 3.015625 -17.078125 C 3.535156 -17.078125 3.957031 -16.929688 4.28125 -16.640625 C 4.601562 -16.359375 4.765625 -15.984375 4.765625 -15.515625 C 4.765625 -15.046875 4.601562 -14.660156 4.28125 -14.359375 C 3.96875 -14.066406 3.546875 -13.921875 3.015625 -13.921875 Z M 3.015625 -13.921875 "/></g></g></g><g fill="#8c52ff" fill-opacity="1"><g transform="translate(48.627671, 24.957234)"><g><path d="M 8.265625 -11.875 C 9.648438 -11.875 10.679688 -11.476562 11.359375 -10.6875 C 12.046875 -9.894531 12.390625 -8.703125 12.390625 -7.109375 L 12.390625 -1.28125 C 12.390625 -0.832031 12.257812 -0.484375 12 -0.234375 C 11.738281 0.015625 11.378906 0.140625 10.921875 0.140625 C 10.460938 0.140625 10.097656 0.015625 9.828125 -0.234375 C 9.554688 -0.484375 9.421875 -0.832031 9.421875 -1.28125 L 9.421875 -6.9375 C 9.421875 -7.84375 9.25 -8.5 8.90625 -8.90625 C 8.570312 -9.3125 8.039062 -9.515625 7.3125 -9.515625 C 6.46875 -9.515625 5.785156 -9.242188 5.265625 -8.703125 C 4.753906 -8.171875 4.5 -7.457031 4.5 -6.5625 L 4.5 -1.28125 C 4.5 -0.832031 4.363281 -0.484375 4.09375 -0.234375 C 3.820312 0.015625 3.460938 0.140625 3.015625 0.140625 C 2.554688 0.140625 2.195312 0.015625 1.9375 -0.234375 C 1.675781 -0.484375 1.546875 -0.832031 1.546875 -1.28125 L 1.546875 -10.453125 C 1.546875 -10.859375 1.675781 -11.1875 1.9375 -11.4375 C 2.207031 -11.6875 2.570312 -11.8125 3.03125 -11.8125 C 3.4375 -11.8125 3.769531 -11.6875 4.03125 -11.4375 C 4.289062 -11.195312 4.421875 -10.882812 4.421875 -10.5 L 4.421875 -9.859375 C 4.816406 -10.503906 5.347656 -11 6.015625 -11.34375 C 6.679688 -11.695312 7.429688 -11.875 8.265625 -11.875 Z M 8.265625 -11.875 "/></g></g></g><g fill="#8c52ff" fill-opacity="1"><g transform="translate(62.482958, 24.957234)"><g><path d="M 7.5625 -2.0625 C 8.34375 -2.007812 8.734375 -1.65625 8.734375 -1 C 8.734375 -0.613281 8.578125 -0.320312 8.265625 -0.125 C 7.960938 0.0703125 7.53125 0.15625 6.96875 0.125 L 6.328125 0.078125 C 3.671875 -0.117188 2.34375 -1.539062 2.34375 -4.1875 L 2.34375 -9.359375 L 1.15625 -9.359375 C 0.726562 -9.359375 0.398438 -9.453125 0.171875 -9.640625 C -0.0546875 -9.828125 -0.171875 -10.101562 -0.171875 -10.46875 C -0.171875 -10.832031 -0.0546875 -11.109375 0.171875 -11.296875 C 0.398438 -11.484375 0.726562 -11.578125 1.15625 -11.578125 L 2.34375 -11.578125 L 2.34375 -13.765625 C 2.34375 -14.191406 2.476562 -14.53125 2.75 -14.78125 C 3.019531 -15.03125 3.382812 -15.15625 3.84375 -15.15625 C 4.28125 -15.15625 4.632812 -15.03125 4.90625 -14.78125 C 5.175781 -14.53125 5.3125 -14.191406 5.3125 -13.765625 L 5.3125 -11.578125 L 7.3125 -11.578125 C 7.738281 -11.578125 8.066406 -11.484375 8.296875 -11.296875 C 8.523438 -11.109375 8.640625 -10.832031 8.640625 -10.46875 C 8.640625 -10.101562 8.523438 -9.828125 8.296875 -9.640625 C 8.066406 -9.453125 7.738281 -9.359375 7.3125 -9.359375 L 5.3125 -9.359375 L 5.3125 -3.984375 C 5.3125 -2.816406 5.847656 -2.191406 6.921875 -2.109375 Z M 7.5625 -2.0625 "/></g></g></g><g fill="#8c52ff" fill-opacity="1"><g transform="translate(71.222453, 24.957234)"><g><path d="M 8.3125 -11.875 C 11.03125 -11.875 12.390625 -10.285156 12.390625 -7.109375 L 12.390625 -1.28125 C 12.390625 -0.832031 12.257812 -0.484375 12 -0.234375 C 11.738281 0.015625 11.378906 0.140625 10.921875 0.140625 C 10.460938 0.140625 10.097656 0.015625 9.828125 -0.234375 C 9.554688 -0.484375 9.421875 -0.832031 9.421875 -1.28125 L 9.421875 -7.109375 C 9.421875 -7.941406 9.25 -8.550781 8.90625 -8.9375 C 8.570312 -9.320312 8.039062 -9.515625 7.3125 -9.515625 C 6.46875 -9.515625 5.785156 -9.242188 5.265625 -8.703125 C 4.753906 -8.171875 4.5 -7.457031 4.5 -6.5625 L 4.5 -1.28125 C 4.5 -0.832031 4.363281 -0.484375 4.09375 -0.234375 C 3.820312 0.015625 3.460938 0.140625 3.015625 0.140625 C 2.554688 0.140625 2.195312 0.015625 1.9375 -0.234375 C 1.675781 -0.484375 1.546875 -0.832031 1.546875 -1.28125 L 1.546875 -15.4375 C 1.546875 -15.851562 1.679688 -16.1875 1.953125 -16.4375 C 2.234375 -16.6875 2.59375 -16.8125 3.03125 -16.8125 C 3.46875 -16.8125 3.820312 -16.691406 4.09375 -16.453125 C 4.363281 -16.222656 4.5 -15.898438 4.5 -15.484375 L 4.5 -9.96875 C 4.894531 -10.582031 5.421875 -11.050781 6.078125 -11.375 C 6.734375 -11.707031 7.476562 -11.875 8.3125 -11.875 Z M 8.3125 -11.875 "/></g></g></g><g fill="#8c52ff" fill-opacity="1"><g transform="translate(85.077739, 24.957234)"><g><path d="M 6.5625 -11.875 C 8.175781 -11.875 9.375 -11.472656 10.15625 -10.671875 C 10.9375 -9.867188 11.328125 -8.65625 11.328125 -7.03125 L 11.328125 -1.25 C 11.328125 -0.820312 11.195312 -0.484375 10.9375 -0.234375 C 10.6875 0.00390625 10.34375 0.125 9.90625 0.125 C 9.488281 0.125 9.148438 0 8.890625 -0.25 C 8.628906 -0.507812 8.5 -0.84375 8.5 -1.25 L 8.5 -1.78125 C 8.226562 -1.164062 7.804688 -0.679688 7.234375 -0.328125 C 6.660156 0.015625 5.992188 0.1875 5.234375 0.1875 C 4.460938 0.1875 3.757812 0.03125 3.125 -0.28125 C 2.488281 -0.601562 1.988281 -1.039062 1.625 -1.59375 C 1.269531 -2.144531 1.09375 -2.757812 1.09375 -3.4375 C 1.09375 -4.289062 1.304688 -4.960938 1.734375 -5.453125 C 2.171875 -5.941406 2.878906 -6.296875 3.859375 -6.515625 C 4.835938 -6.734375 6.1875 -6.84375 7.90625 -6.84375 L 8.5 -6.84375 L 8.5 -7.390625 C 8.5 -8.160156 8.332031 -8.722656 8 -9.078125 C 7.675781 -9.429688 7.140625 -9.609375 6.390625 -9.609375 C 5.929688 -9.609375 5.460938 -9.539062 4.984375 -9.40625 C 4.515625 -9.28125 3.957031 -9.085938 3.3125 -8.828125 C 2.90625 -8.628906 2.609375 -8.53125 2.421875 -8.53125 C 2.128906 -8.53125 1.890625 -8.628906 1.703125 -8.828125 C 1.523438 -9.035156 1.4375 -9.304688 1.4375 -9.640625 C 1.4375 -9.910156 1.503906 -10.144531 1.640625 -10.34375 C 1.773438 -10.539062 2.003906 -10.722656 2.328125 -10.890625 C 2.878906 -11.191406 3.535156 -11.429688 4.296875 -11.609375 C 5.066406 -11.785156 5.820312 -11.875 6.5625 -11.875 Z M 5.828125 -1.9375 C 6.617188 -1.9375 7.257812 -2.203125 7.75 -2.734375 C 8.25 -3.265625 8.5 -3.945312 8.5 -4.78125 L 8.5 -5.28125 L 8.078125 -5.28125 C 7.015625 -5.28125 6.191406 -5.234375 5.609375 -5.140625 C 5.023438 -5.046875 4.609375 -4.878906 4.359375 -4.640625 C 4.109375 -4.398438 3.984375 -4.078125 3.984375 -3.671875 C 3.984375 -3.160156 4.160156 -2.742188 4.515625 -2.421875 C 4.867188 -2.097656 5.304688 -1.9375 5.828125 -1.9375 Z M 5.828125 -1.9375 "/></g></g></g><g fill="#8c52ff" fill-opacity="1"><g transform="translate(97.867233, 24.957234)"><g><path d="M 5.734375 0.1875 C 4.015625 0.1875 2.625 -0.148438 1.5625 -0.828125 C 1.0625 -1.128906 0.8125 -1.554688 0.8125 -2.109375 C 0.8125 -2.421875 0.894531 -2.675781 1.0625 -2.875 C 1.238281 -3.070312 1.453125 -3.171875 1.703125 -3.171875 C 1.972656 -3.171875 2.34375 -3.046875 2.8125 -2.796875 C 3.320312 -2.554688 3.785156 -2.375 4.203125 -2.25 C 4.617188 -2.125 5.148438 -2.0625 5.796875 -2.0625 C 6.460938 -2.0625 6.976562 -2.171875 7.34375 -2.390625 C 7.71875 -2.609375 7.90625 -2.914062 7.90625 -3.3125 C 7.90625 -3.582031 7.832031 -3.796875 7.6875 -3.953125 C 7.539062 -4.109375 7.269531 -4.253906 6.875 -4.390625 C 6.488281 -4.523438 5.898438 -4.679688 5.109375 -4.859375 C 3.710938 -5.140625 2.707031 -5.539062 2.09375 -6.0625 C 1.488281 -6.582031 1.1875 -7.300781 1.1875 -8.21875 C 1.1875 -8.914062 1.390625 -9.539062 1.796875 -10.09375 C 2.210938 -10.65625 2.78125 -11.09375 3.5 -11.40625 C 4.21875 -11.71875 5.035156 -11.875 5.953125 -11.875 C 6.609375 -11.875 7.242188 -11.789062 7.859375 -11.625 C 8.472656 -11.457031 9.023438 -11.210938 9.515625 -10.890625 C 10.023438 -10.578125 10.28125 -10.160156 10.28125 -9.640625 C 10.28125 -9.328125 10.191406 -9.0625 10.015625 -8.84375 C 9.847656 -8.632812 9.632812 -8.53125 9.375 -8.53125 C 9.207031 -8.53125 9.039062 -8.5625 8.875 -8.625 C 8.707031 -8.695312 8.5 -8.804688 8.25 -8.953125 C 7.789062 -9.191406 7.394531 -9.367188 7.0625 -9.484375 C 6.726562 -9.609375 6.316406 -9.671875 5.828125 -9.671875 C 5.242188 -9.671875 4.78125 -9.550781 4.4375 -9.3125 C 4.101562 -9.070312 3.9375 -8.75 3.9375 -8.34375 C 3.9375 -7.945312 4.109375 -7.644531 4.453125 -7.4375 C 4.796875 -7.226562 5.46875 -7.023438 6.46875 -6.828125 C 7.519531 -6.597656 8.347656 -6.34375 8.953125 -6.0625 C 9.554688 -5.78125 9.988281 -5.425781 10.25 -5 C 10.507812 -4.570312 10.640625 -4.023438 10.640625 -3.359375 C 10.640625 -2.285156 10.191406 -1.425781 9.296875 -0.78125 C 8.398438 -0.132812 7.210938 0.1875 5.734375 0.1875 Z M 5.734375 0.1875 "/></g></g></g></svg>