<svg xmlns="http://www.w3.org/2000/svg" xmlns:xlink="http://www.w3.org/1999/xlink" width="120" zoomAndPan="magnify" viewBox="0 0 90 30.000001" height="40" preserveAspectRatio="xMidYMid meet" version="1.0"><defs><g/><clipPath id="93df42744a"><path d="M 1.453125 0 L 88.546875 0 L 88.546875 29.03125 L 1.453125 29.03125 Z M 1.453125 0 " clip-rule="nonzero"/></clipPath><clipPath id="b0b2f37350"><rect x="0" width="88" y="0" height="30"/></clipPath></defs><g clip-path="url(#93df42744a)"><g transform="matrix(1, 0, 0, 1, 1, 0.000000000000005692)"><g clip-path="url(#b0b2f37350)"><g fill="#ffffff" fill-opacity="1"><g transform="translate(0.98317, 25.278126)"><g><path d="M 7.71875 0.765625 C 6.414062 0.765625 5.238281 0.453125 4.1875 -0.171875 C 3.132812 -0.796875 2.300781 -1.679688 1.6875 -2.828125 C 1.070312 -3.984375 0.765625 -5.34375 0.765625 -6.90625 C 0.765625 -8.132812 0.945312 -9.421875 1.3125 -10.765625 C 1.6875 -12.109375 2.191406 -13.421875 2.828125 -14.703125 C 3.460938 -15.992188 4.179688 -17.160156 4.984375 -18.203125 C 5.796875 -19.242188 6.648438 -20.066406 7.546875 -20.671875 C 8.441406 -21.285156 9.332031 -21.59375 10.21875 -21.59375 C 10.726562 -21.59375 11.28125 -21.460938 11.875 -21.203125 C 12.476562 -20.953125 13.0625 -20.597656 13.625 -20.140625 C 14.1875 -19.691406 14.644531 -19.164062 15 -18.5625 C 15.351562 -17.96875 15.53125 -17.316406 15.53125 -16.609375 C 15.53125 -15.742188 15.359375 -14.929688 15.015625 -14.171875 C 14.679688 -13.421875 14.25 -12.75 13.71875 -12.15625 C 13.195312 -11.570312 12.671875 -11.109375 12.140625 -10.765625 C 11.609375 -10.421875 11.160156 -10.25 10.796875 -10.25 C 10.484375 -10.25 10.238281 -10.316406 10.0625 -10.453125 C 9.894531 -10.585938 9.8125 -10.726562 9.8125 -10.875 C 9.8125 -11.113281 9.984375 -11.234375 10.328125 -11.234375 C 10.515625 -11.429688 10.757812 -11.78125 11.0625 -12.28125 C 11.375 -12.789062 11.675781 -13.367188 11.96875 -14.015625 C 12.269531 -14.660156 12.515625 -15.320312 12.703125 -16 C 12.898438 -16.675781 13 -17.28125 13 -17.8125 C 13 -18.257812 12.90625 -18.625 12.71875 -18.90625 C 12.539062 -19.1875 12.234375 -19.328125 11.796875 -19.328125 C 11.109375 -19.328125 10.390625 -19.035156 9.640625 -18.453125 C 8.890625 -17.878906 8.15625 -17.113281 7.4375 -16.15625 C 6.71875 -15.207031 6.066406 -14.144531 5.484375 -12.96875 C 4.910156 -11.789062 4.453125 -10.59375 4.109375 -9.375 C 3.765625 -8.164062 3.59375 -7.035156 3.59375 -5.984375 C 3.59375 -4.640625 3.921875 -3.59375 4.578125 -2.84375 C 5.242188 -2.09375 6.289062 -1.71875 7.71875 -1.71875 C 9.132812 -1.71875 10.4375 -2.007812 11.625 -2.59375 C 12.8125 -3.1875 13.828125 -4.003906 14.671875 -5.046875 C 15.515625 -6.085938 16.144531 -7.257812 16.5625 -8.5625 C 16.613281 -8.601562 16.675781 -8.625 16.75 -8.625 C 16.894531 -8.625 17.066406 -8.546875 17.265625 -8.390625 C 17.460938 -8.234375 17.5625 -7.984375 17.5625 -7.640625 C 17.5625 -7.546875 17.550781 -7.457031 17.53125 -7.375 C 17.519531 -7.300781 17.503906 -7.21875 17.484375 -7.125 C 17.066406 -5.65625 16.347656 -4.320312 15.328125 -3.125 C 14.316406 -1.925781 13.144531 -0.976562 11.8125 -0.28125 C 10.476562 0.414062 9.113281 0.765625 7.71875 0.765625 Z M 7.71875 0.765625 "/></g></g></g><g fill="#ffffff" fill-opacity="1"><g transform="translate(16.042509, 25.278126)"><g><path d="M 13.671875 -7.046875 C 13.859375 -7.046875 14.054688 -6.945312 14.265625 -6.75 C 14.472656 -6.5625 14.566406 -6.378906 14.546875 -6.203125 C 13.859375 -4.242188 13.125 -2.71875 12.34375 -1.625 C 11.5625 -0.539062 10.773438 0 9.984375 0 C 9.523438 0 8.960938 -0.179688 8.296875 -0.546875 C 7.640625 -0.921875 7.210938 -1.410156 7.015625 -2.015625 C 6.960938 -2.191406 6.925781 -2.394531 6.90625 -2.625 C 6.882812 -2.851562 6.875 -3.09375 6.875 -3.34375 C 6.875 -4.195312 6.988281 -5.179688 7.21875 -6.296875 C 7.445312 -7.410156 7.710938 -8.457031 8.015625 -9.4375 C 7.640625 -8.894531 7.203125 -8.207031 6.703125 -7.375 C 6.203125 -6.550781 5.707031 -5.675781 5.21875 -4.75 C 4.726562 -3.832031 4.296875 -2.984375 3.921875 -2.203125 C 3.554688 -1.421875 3.316406 -0.796875 3.203125 -0.328125 C 3.203125 -0.109375 3.078125 0 2.828125 0 C 2.503906 0 2.09375 -0.1875 1.59375 -0.5625 C 1.09375 -0.945312 0.78125 -1.320312 0.65625 -1.6875 C 0.5625 -2.050781 0.515625 -2.566406 0.515625 -3.234375 C 0.515625 -4.085938 0.59375 -5.085938 0.75 -6.234375 C 0.90625 -7.390625 1.101562 -8.601562 1.34375 -9.875 C 1.59375 -11.15625 1.867188 -12.40625 2.171875 -13.625 C 2.484375 -14.851562 2.796875 -15.976562 3.109375 -17 C 3.429688 -18.03125 3.71875 -18.878906 3.96875 -19.546875 C 4.039062 -19.859375 4.296875 -20.015625 4.734375 -20.015625 C 5.054688 -20.015625 5.410156 -19.941406 5.796875 -19.796875 C 6.191406 -19.648438 6.53125 -19.476562 6.8125 -19.28125 C 7.09375 -19.082031 7.234375 -18.898438 7.234375 -18.734375 C 7.234375 -18.640625 7.1875 -18.554688 7.09375 -18.484375 C 6.875 -18.304688 6.613281 -17.832031 6.3125 -17.0625 C 6.019531 -16.289062 5.707031 -15.34375 5.375 -14.21875 C 5.050781 -13.09375 4.726562 -11.875 4.40625 -10.5625 C 4.09375 -9.25 3.816406 -7.945312 3.578125 -6.65625 C 3.347656 -5.375 3.179688 -4.207031 3.078125 -3.15625 C 3.546875 -4.207031 4.09375 -5.335938 4.71875 -6.546875 C 5.34375 -7.765625 5.972656 -8.898438 6.609375 -9.953125 C 7.242188 -11.003906 7.804688 -11.8125 8.296875 -12.375 C 8.441406 -12.550781 8.6875 -12.640625 9.03125 -12.640625 C 9.445312 -12.640625 9.894531 -12.519531 10.375 -12.28125 C 10.851562 -12.050781 11.234375 -11.796875 11.515625 -11.515625 C 11.796875 -11.234375 11.828125 -11.019531 11.609375 -10.875 C 11.390625 -10.65625 11.160156 -10.234375 10.921875 -9.609375 C 10.691406 -8.984375 10.46875 -8.265625 10.25 -7.453125 C 10.03125 -6.648438 9.851562 -5.847656 9.71875 -5.046875 C 9.582031 -4.253906 9.515625 -3.5625 9.515625 -2.96875 C 9.515625 -2.582031 9.550781 -2.265625 9.625 -2.015625 C 9.695312 -1.773438 9.816406 -1.65625 9.984375 -1.65625 C 10.378906 -1.65625 10.867188 -2.054688 11.453125 -2.859375 C 12.046875 -3.671875 12.6875 -5.007812 13.375 -6.875 C 13.445312 -6.988281 13.546875 -7.046875 13.671875 -7.046875 Z M 13.671875 -7.046875 "/></g></g></g><g fill="#ffffff" fill-opacity="1"><g transform="translate(28.494008, 25.278126)"><g><path d="M 5.40625 -15.578125 C 5.082031 -15.578125 4.695312 -15.765625 4.25 -16.140625 C 3.8125 -16.523438 3.59375 -16.984375 3.59375 -17.515625 C 3.59375 -18.078125 3.6875 -18.6875 3.875 -19.34375 C 4.0625 -20.007812 4.273438 -20.53125 4.515625 -20.90625 C 4.710938 -21.25 5.007812 -21.421875 5.40625 -21.421875 C 5.71875 -21.421875 6.054688 -21.34375 6.421875 -21.1875 C 6.796875 -21.039062 7.113281 -20.863281 7.375 -20.65625 C 7.644531 -20.445312 7.78125 -20.25 7.78125 -20.0625 C 7.78125 -19.988281 7.722656 -19.890625 7.609375 -19.765625 C 7.429688 -19.566406 7.203125 -19.222656 6.921875 -18.734375 C 6.640625 -18.242188 6.378906 -17.734375 6.140625 -17.203125 C 5.910156 -16.679688 5.785156 -16.257812 5.765625 -15.9375 C 5.765625 -15.695312 5.644531 -15.578125 5.40625 -15.578125 Z M 3.859375 0 C 3.421875 0 2.878906 -0.171875 2.234375 -0.515625 C 1.597656 -0.859375 1.160156 -1.285156 0.921875 -1.796875 C 0.816406 -2.046875 0.738281 -2.347656 0.6875 -2.703125 C 0.644531 -3.054688 0.625 -3.46875 0.625 -3.9375 C 0.625 -4.789062 0.691406 -5.726562 0.828125 -6.75 C 0.960938 -7.78125 1.144531 -8.78125 1.375 -9.75 C 1.601562 -10.71875 1.867188 -11.519531 2.171875 -12.15625 C 2.242188 -12.445312 2.488281 -12.59375 2.90625 -12.59375 C 3.21875 -12.59375 3.570312 -12.519531 3.96875 -12.375 C 4.363281 -12.226562 4.703125 -12.054688 4.984375 -11.859375 C 5.265625 -11.671875 5.40625 -11.488281 5.40625 -11.3125 C 5.40625 -11.238281 5.351562 -11.15625 5.25 -11.0625 C 5.050781 -10.832031 4.835938 -10.414062 4.609375 -9.8125 C 4.378906 -9.21875 4.160156 -8.519531 3.953125 -7.71875 C 3.742188 -6.925781 3.578125 -6.132812 3.453125 -5.34375 C 3.328125 -4.550781 3.265625 -3.847656 3.265625 -3.234375 C 3.265625 -2.765625 3.3125 -2.390625 3.40625 -2.109375 C 3.507812 -1.828125 3.671875 -1.6875 3.890625 -1.6875 C 4.160156 -1.6875 4.566406 -2.078125 5.109375 -2.859375 C 5.648438 -3.648438 6.257812 -4.988281 6.9375 -6.875 C 7.007812 -6.988281 7.109375 -7.046875 7.234375 -7.046875 C 7.429688 -7.046875 7.632812 -6.945312 7.84375 -6.75 C 8.050781 -6.5625 8.144531 -6.378906 8.125 -6.203125 C 7.4375 -4.242188 6.722656 -2.71875 5.984375 -1.625 C 5.253906 -0.539062 4.546875 0 3.859375 0 Z M 3.859375 0 "/></g></g></g><g fill="#ffffff" fill-opacity="1"><g transform="translate(34.517743, 25.278126)"><g><path d="M 13.4375 -7.015625 C 13.632812 -7.015625 13.835938 -6.921875 14.046875 -6.734375 C 14.253906 -6.554688 14.347656 -6.378906 14.328125 -6.203125 C 13.640625 -4.242188 12.90625 -2.71875 12.125 -1.625 C 11.34375 -0.539062 10.617188 0 9.953125 0 C 9.640625 0 9.273438 -0.078125 8.859375 -0.234375 C 8.441406 -0.398438 8.050781 -0.632812 7.6875 -0.9375 C 7.332031 -1.238281 7.097656 -1.597656 6.984375 -2.015625 C 6.859375 -2.390625 6.796875 -2.84375 6.796875 -3.375 C 6.796875 -4.238281 6.914062 -5.226562 7.15625 -6.34375 C 7.40625 -7.457031 7.675781 -8.515625 7.96875 -9.515625 C 7.601562 -8.972656 7.175781 -8.285156 6.6875 -7.453125 C 6.195312 -6.617188 5.71875 -5.742188 5.25 -4.828125 C 4.789062 -3.910156 4.390625 -3.050781 4.046875 -2.25 C 3.703125 -1.457031 3.46875 -0.832031 3.34375 -0.375 C 3.34375 -0.125 3.195312 0 2.90625 0 C 2.6875 0 2.414062 -0.078125 2.09375 -0.234375 C 1.769531 -0.398438 1.472656 -0.601562 1.203125 -0.84375 C 0.941406 -1.09375 0.773438 -1.335938 0.703125 -1.578125 C 0.578125 -1.867188 0.515625 -2.332031 0.515625 -2.96875 C 0.515625 -3.613281 0.554688 -4.347656 0.640625 -5.171875 C 0.722656 -6.003906 0.84375 -6.863281 1 -7.75 C 1.164062 -8.632812 1.351562 -9.472656 1.5625 -10.265625 C 1.769531 -11.066406 1.984375 -11.722656 2.203125 -12.234375 C 2.273438 -12.546875 2.519531 -12.703125 2.9375 -12.703125 C 3.257812 -12.703125 3.609375 -12.628906 3.984375 -12.484375 C 4.367188 -12.335938 4.703125 -12.160156 4.984375 -11.953125 C 5.265625 -11.742188 5.40625 -11.554688 5.40625 -11.390625 C 5.40625 -11.335938 5.351562 -11.265625 5.25 -11.171875 C 5.050781 -10.953125 4.84375 -10.535156 4.625 -9.921875 C 4.40625 -9.304688 4.191406 -8.609375 3.984375 -7.828125 C 3.773438 -7.046875 3.601562 -6.238281 3.46875 -5.40625 C 3.332031 -4.570312 3.242188 -3.820312 3.203125 -3.15625 C 3.640625 -4.164062 4.148438 -5.253906 4.734375 -6.421875 C 5.328125 -7.597656 5.925781 -8.707031 6.53125 -9.75 C 7.144531 -10.789062 7.695312 -11.609375 8.1875 -12.203125 C 8.476562 -12.535156 8.757812 -12.703125 9.03125 -12.703125 C 9.40625 -12.703125 9.789062 -12.617188 10.1875 -12.453125 C 10.59375 -12.285156 10.941406 -12.082031 11.234375 -11.84375 C 11.535156 -11.613281 11.6875 -11.398438 11.6875 -11.203125 C 11.6875 -11.109375 11.648438 -11.023438 11.578125 -10.953125 C 11.347656 -10.722656 11.117188 -10.289062 10.890625 -9.65625 C 10.660156 -9.019531 10.429688 -8.296875 10.203125 -7.484375 C 9.984375 -6.679688 9.804688 -5.878906 9.671875 -5.078125 C 9.546875 -4.285156 9.484375 -3.597656 9.484375 -3.015625 C 9.484375 -2.128906 9.640625 -1.6875 9.953125 -1.6875 C 10.242188 -1.6875 10.675781 -2.078125 11.25 -2.859375 C 11.832031 -3.648438 12.46875 -4.988281 13.15625 -6.875 C 13.226562 -6.96875 13.320312 -7.015625 13.4375 -7.015625 Z M 13.4375 -7.015625 "/></g></g></g><g fill="#ffffff" fill-opacity="1"><g transform="translate(46.748865, 25.278126)"><g><path d="M 8.5625 -7.046875 C 8.757812 -7.046875 8.960938 -6.945312 9.171875 -6.75 C 9.378906 -6.5625 9.46875 -6.378906 9.4375 -6.203125 C 8.78125 -4.316406 8.046875 -2.8125 7.234375 -1.6875 C 6.429688 -0.5625 5.460938 0 4.328125 0 C 3.691406 0 3.035156 -0.179688 2.359375 -0.546875 C 1.691406 -0.921875 1.234375 -1.363281 0.984375 -1.875 C 0.765625 -2.363281 0.65625 -3.070312 0.65625 -4 C 0.65625 -4.957031 0.753906 -6.0625 0.953125 -7.3125 C 1.148438 -8.5625 1.394531 -9.820312 1.6875 -11.09375 C 1.320312 -11.21875 1.035156 -11.410156 0.828125 -11.671875 C 0.617188 -11.941406 0.515625 -12.164062 0.515625 -12.34375 C 0.515625 -12.507812 0.585938 -12.609375 0.734375 -12.640625 C 0.859375 -12.535156 1.007812 -12.460938 1.1875 -12.421875 C 1.375 -12.390625 1.566406 -12.375 1.765625 -12.375 L 2.015625 -12.375 C 2.285156 -13.382812 2.566406 -14.34375 2.859375 -15.25 C 3.160156 -16.15625 3.429688 -16.910156 3.671875 -17.515625 C 3.742188 -17.816406 4.015625 -17.96875 4.484375 -17.96875 C 4.796875 -17.96875 5.140625 -17.898438 5.515625 -17.765625 C 5.898438 -17.628906 6.234375 -17.46875 6.515625 -17.28125 C 6.796875 -17.101562 6.9375 -16.914062 6.9375 -16.71875 C 6.9375 -16.613281 6.890625 -16.523438 6.796875 -16.453125 C 6.617188 -16.285156 6.390625 -15.875 6.109375 -15.21875 C 5.828125 -14.570312 5.53125 -13.785156 5.21875 -12.859375 C 5.507812 -12.910156 5.773438 -12.953125 6.015625 -12.984375 C 6.265625 -13.023438 6.476562 -13.046875 6.65625 -13.046875 C 7.0625 -13.046875 7.347656 -12.875 7.515625 -12.53125 C 7.691406 -12.1875 7.78125 -11.867188 7.78125 -11.578125 C 7.78125 -11.328125 7.742188 -11.140625 7.671875 -11.015625 C 7.597656 -10.898438 7.488281 -10.878906 7.34375 -10.953125 C 7.175781 -10.992188 6.925781 -11.019531 6.59375 -11.03125 C 6.257812 -11.050781 5.882812 -11.0625 5.46875 -11.0625 L 4.671875 -11.0625 C 4.328125 -9.8125 4.023438 -8.535156 3.765625 -7.234375 C 3.503906 -5.941406 3.375 -4.828125 3.375 -3.890625 C 3.375 -3.203125 3.453125 -2.65625 3.609375 -2.25 C 3.773438 -1.851562 4.039062 -1.65625 4.40625 -1.65625 C 5 -1.65625 5.644531 -2.097656 6.34375 -2.984375 C 7.039062 -3.878906 7.679688 -5.175781 8.265625 -6.875 C 8.335938 -6.988281 8.4375 -7.046875 8.5625 -7.046875 Z M 8.5625 -7.046875 "/></g></g></g><g fill="#ffffff" fill-opacity="1"><g transform="translate(54.094883, 25.278126)"><g><path d="M 13.671875 -7.046875 C 13.859375 -7.046875 14.054688 -6.945312 14.265625 -6.75 C 14.472656 -6.5625 14.566406 -6.378906 14.546875 -6.203125 C 13.859375 -4.242188 13.125 -2.71875 12.34375 -1.625 C 11.5625 -0.539062 10.773438 0 9.984375 0 C 9.523438 0 8.960938 -0.179688 8.296875 -0.546875 C 7.640625 -0.921875 7.210938 -1.410156 7.015625 -2.015625 C 6.960938 -2.191406 6.925781 -2.394531 6.90625 -2.625 C 6.882812 -2.851562 6.875 -3.09375 6.875 -3.34375 C 6.875 -4.195312 6.988281 -5.179688 7.21875 -6.296875 C 7.445312 -7.410156 7.710938 -8.457031 8.015625 -9.4375 C 7.640625 -8.894531 7.203125 -8.207031 6.703125 -7.375 C 6.203125 -6.550781 5.707031 -5.675781 5.21875 -4.75 C 4.726562 -3.832031 4.296875 -2.984375 3.921875 -2.203125 C 3.554688 -1.421875 3.316406 -0.796875 3.203125 -0.328125 C 3.203125 -0.109375 3.078125 0 2.828125 0 C 2.503906 0 2.09375 -0.1875 1.59375 -0.5625 C 1.09375 -0.945312 0.78125 -1.320312 0.65625 -1.6875 C 0.5625 -2.050781 0.515625 -2.566406 0.515625 -3.234375 C 0.515625 -4.085938 0.59375 -5.085938 0.75 -6.234375 C 0.90625 -7.390625 1.101562 -8.601562 1.34375 -9.875 C 1.59375 -11.15625 1.867188 -12.40625 2.171875 -13.625 C 2.484375 -14.851562 2.796875 -15.976562 3.109375 -17 C 3.429688 -18.03125 3.71875 -18.878906 3.96875 -19.546875 C 4.039062 -19.859375 4.296875 -20.015625 4.734375 -20.015625 C 5.054688 -20.015625 5.410156 -19.941406 5.796875 -19.796875 C 6.191406 -19.648438 6.53125 -19.476562 6.8125 -19.28125 C 7.09375 -19.082031 7.234375 -18.898438 7.234375 -18.734375 C 7.234375 -18.640625 7.1875 -18.554688 7.09375 -18.484375 C 6.875 -18.304688 6.613281 -17.832031 6.3125 -17.0625 C 6.019531 -16.289062 5.707031 -15.34375 5.375 -14.21875 C 5.050781 -13.09375 4.726562 -11.875 4.40625 -10.5625 C 4.09375 -9.25 3.816406 -7.945312 3.578125 -6.65625 C 3.347656 -5.375 3.179688 -4.207031 3.078125 -3.15625 C 3.546875 -4.207031 4.09375 -5.335938 4.71875 -6.546875 C 5.34375 -7.765625 5.972656 -8.898438 6.609375 -9.953125 C 7.242188 -11.003906 7.804688 -11.8125 8.296875 -12.375 C 8.441406 -12.550781 8.6875 -12.640625 9.03125 -12.640625 C 9.445312 -12.640625 9.894531 -12.519531 10.375 -12.28125 C 10.851562 -12.050781 11.234375 -11.796875 11.515625 -11.515625 C 11.796875 -11.234375 11.828125 -11.019531 11.609375 -10.875 C 11.390625 -10.65625 11.160156 -10.234375 10.921875 -9.609375 C 10.691406 -8.984375 10.46875 -8.265625 10.25 -7.453125 C 10.03125 -6.648438 9.851562 -5.847656 9.71875 -5.046875 C 9.582031 -4.253906 9.515625 -3.5625 9.515625 -2.96875 C 9.515625 -2.582031 9.550781 -2.265625 9.625 -2.015625 C 9.695312 -1.773438 9.816406 -1.65625 9.984375 -1.65625 C 10.378906 -1.65625 10.867188 -2.054688 11.453125 -2.859375 C 12.046875 -3.671875 12.6875 -5.007812 13.375 -6.875 C 13.445312 -6.988281 13.546875 -7.046875 13.671875 -7.046875 Z M 13.671875 -7.046875 "/></g></g></g><g fill="#ffffff" fill-opacity="1"><g transform="translate(66.546382, 25.278126)"><g><path d="M 13.296875 -7.046875 C 13.492188 -7.046875 13.695312 -6.945312 13.90625 -6.75 C 14.113281 -6.5625 14.203125 -6.378906 14.171875 -6.203125 C 13.492188 -4.273438 12.789062 -2.757812 12.0625 -1.65625 C 11.34375 -0.550781 10.59375 0 9.8125 0 C 9.34375 0 8.800781 -0.179688 8.1875 -0.546875 C 7.570312 -0.921875 7.171875 -1.335938 6.984375 -1.796875 C 6.910156 -2.046875 6.84375 -2.320312 6.78125 -2.625 C 6.71875 -2.925781 6.660156 -3.273438 6.609375 -3.671875 C 6.222656 -2.640625 5.773438 -1.769531 5.265625 -1.0625 C 4.765625 -0.351562 4.207031 0 3.59375 0 C 3.15625 0 2.625 -0.175781 2 -0.53125 C 1.375 -0.882812 0.960938 -1.28125 0.765625 -1.71875 C 0.546875 -2.21875 0.4375 -2.878906 0.4375 -3.703125 C 0.4375 -4.585938 0.546875 -5.554688 0.765625 -6.609375 C 0.992188 -7.660156 1.304688 -8.664062 1.703125 -9.625 C 2.109375 -10.582031 2.585938 -11.375 3.140625 -12 C 3.691406 -12.625 4.296875 -12.9375 4.953125 -12.9375 C 5.398438 -12.9375 5.910156 -12.789062 6.484375 -12.5 C 7.054688 -12.21875 7.566406 -11.910156 8.015625 -11.578125 C 8.035156 -11.648438 8.054688 -11.710938 8.078125 -11.765625 C 8.109375 -11.828125 8.132812 -11.882812 8.15625 -11.9375 C 8.226562 -12.226562 8.460938 -12.375 8.859375 -12.375 C 9.222656 -12.375 9.613281 -12.273438 10.03125 -12.078125 C 10.445312 -11.890625 10.769531 -11.671875 11 -11.421875 C 11.226562 -11.179688 11.25 -10.988281 11.0625 -10.84375 C 10.882812 -10.613281 10.691406 -10.210938 10.484375 -9.640625 C 10.273438 -9.066406 10.078125 -8.398438 9.890625 -7.640625 C 9.710938 -6.878906 9.566406 -6.109375 9.453125 -5.328125 C 9.347656 -4.546875 9.296875 -3.859375 9.296875 -3.265625 C 9.296875 -2.804688 9.34375 -2.425781 9.4375 -2.125 C 9.539062 -1.832031 9.6875 -1.6875 9.875 -1.6875 C 10.195312 -1.6875 10.625 -2.078125 11.15625 -2.859375 C 11.695312 -3.648438 12.3125 -4.988281 13 -6.875 C 13.070312 -6.988281 13.171875 -7.046875 13.296875 -7.046875 Z M 3.59375 -1.765625 C 3.84375 -1.765625 4.113281 -1.976562 4.40625 -2.40625 C 4.695312 -2.832031 5 -3.390625 5.3125 -4.078125 C 5.632812 -4.765625 5.941406 -5.492188 6.234375 -6.265625 C 6.535156 -7.035156 6.804688 -7.765625 7.046875 -8.453125 C 7.242188 -9.234375 7.453125 -9.96875 7.671875 -10.65625 C 7.523438 -10.75 7.375 -10.832031 7.21875 -10.90625 C 7.0625 -10.976562 6.882812 -11.015625 6.6875 -11.015625 C 6.195312 -11.015625 5.726562 -10.726562 5.28125 -10.15625 C 4.84375 -9.582031 4.457031 -8.863281 4.125 -8 C 3.800781 -7.144531 3.546875 -6.269531 3.359375 -5.375 C 3.171875 -4.488281 3.078125 -3.722656 3.078125 -3.078125 C 3.078125 -2.203125 3.25 -1.765625 3.59375 -1.765625 Z M 3.59375 -1.765625 "/></g></g></g><g fill="#ffffff" fill-opacity="1"><g transform="translate(78.63059, 25.278126)"><g><path d="M 5.796875 -10.875 C 5.796875 -10.207031 5.957031 -9.453125 6.28125 -8.609375 C 6.601562 -7.765625 6.921875 -6.921875 7.234375 -6.078125 C 7.554688 -5.234375 7.71875 -4.457031 7.71875 -3.75 C 7.71875 -3.113281 7.523438 -2.503906 7.140625 -1.921875 C 6.765625 -1.347656 6.257812 -0.882812 5.625 -0.53125 C 4.988281 -0.175781 4.300781 0 3.5625 0 C 2.832031 0 2.175781 -0.191406 1.59375 -0.578125 C 1.019531 -0.972656 0.554688 -1.441406 0.203125 -1.984375 C -0.148438 -2.523438 -0.398438 -3.003906 -0.546875 -3.421875 C -0.578125 -3.515625 -0.597656 -3.601562 -0.609375 -3.6875 C -0.617188 -3.78125 -0.625 -3.863281 -0.625 -3.9375 C -0.625 -4.195312 -0.5625 -4.40625 -0.4375 -4.5625 C -0.3125 -4.726562 -0.175781 -4.8125 -0.03125 -4.8125 C 0.113281 -4.8125 0.234375 -4.773438 0.328125 -4.703125 C 0.847656 -3.796875 1.398438 -3.0625 1.984375 -2.5 C 2.566406 -1.9375 3.164062 -1.65625 3.78125 -1.65625 C 4.59375 -1.65625 5 -2.109375 5 -3.015625 C 5 -3.554688 4.878906 -4.1875 4.640625 -4.90625 C 4.410156 -5.625 4.148438 -6.394531 3.859375 -7.21875 C 3.566406 -8.039062 3.332031 -8.84375 3.15625 -9.625 C 2.988281 -9.007812 2.8125 -8.40625 2.625 -7.8125 C 2.4375 -7.226562 2.257812 -6.691406 2.09375 -6.203125 C 2.019531 -6.109375 1.921875 -6.0625 1.796875 -6.0625 C 1.628906 -6.0625 1.429688 -6.160156 1.203125 -6.359375 C 0.984375 -6.554688 0.890625 -6.726562 0.921875 -6.875 C 1.140625 -7.457031 1.398438 -8.234375 1.703125 -9.203125 C 2.015625 -10.171875 2.28125 -11.09375 2.5 -11.96875 C 2.5 -12.5625 2.65625 -13.066406 2.96875 -13.484375 C 3.144531 -13.753906 3.441406 -13.890625 3.859375 -13.890625 C 4.273438 -13.890625 4.707031 -13.773438 5.15625 -13.546875 C 5.613281 -13.328125 5.960938 -13.082031 6.203125 -12.8125 C 6.453125 -12.550781 6.46875 -12.332031 6.25 -12.15625 C 5.945312 -11.863281 5.796875 -11.4375 5.796875 -10.875 Z M 5.796875 -10.875 "/></g></g></g></g></g></g></svg>